<svg width="81" height="84" viewBox="0 0 81 84" fill="none" xmlns="http://www.w3.org/2000/svg">
<path d="M15.3981 0H22.875C24.2264 2.09962 24.6213 4.57542 24.9636 6.99872H55.775C56.2138 4.63665 56.7579 2.28333 57.5213 0H64.9982C66.3497 2.09962 66.7446 4.58416 67.0868 7.00747C71.4834 7.71609 80.6101 4.4092 80.7155 11.2942C80.7857 34.0838 80.7857 56.8909 80.7067 79.6892C81.0665 82.2788 79.0481 84.2996 76.4417 83.9409C52.4051 84.0197 28.3598 84.0197 4.32317 83.9409C1.7168 84.2909 -0.301609 82.2788 0.0494179 79.6892C-0.0120118 56.8909 -0.0207875 34.0838 0.0494179 11.2942C0.14595 4.41794 9.26388 7.70735 13.6517 6.99872C14.0905 4.63665 14.6346 2.28333 15.3981 0ZM17.5744 3.49936C17.5569 6.99872 17.5569 10.4981 17.5744 13.9974H21.0672C21.0847 10.4981 21.0847 6.99872 21.0672 3.49936H17.5744ZM59.6977 3.49936C59.6801 6.99872 59.6801 10.4981 59.6977 13.9974H63.1904C63.208 10.4981 63.208 6.99872 63.1904 3.49936H59.6977ZM3.52459 10.5068C3.51581 14.5836 3.51581 18.6603 3.52459 22.7459H77.2315C77.2491 18.6603 77.2491 14.5836 77.2315 10.4981C73.7827 10.4981 70.3426 10.4893 66.8938 10.4981C67.2974 13.9887 65.8758 18.5029 61.4441 17.5755C57.0123 18.4941 55.5819 13.9974 55.9944 10.4981H24.7705C25.183 13.9974 23.7525 18.4941 19.3208 17.5755C14.8891 18.4941 13.4587 13.9887 13.8711 10.4981C10.4223 10.4893 6.97343 10.4981 3.52459 10.5068ZM3.52459 26.2452V80.4853H77.2403V26.2452H3.52459Z" fill="#03426B"/>
<path d="M14.0553 33.2441H66.7094V73.4868H14.0553V33.2441ZM17.5656 36.7435V45.4919H26.3412V36.7435H17.5656ZM29.8515 36.7435V45.4919H38.6272V36.7435H29.8515ZM42.1375 36.7435V45.4919H50.9131V36.7435H42.1375ZM54.4234 36.7435V45.4919H63.1991V36.7435H54.4234ZM17.5656 48.9913V57.7397H26.3412V48.9913H17.5656ZM29.8515 48.9913V57.7397H38.6272V48.9913H29.8515ZM42.1375 48.9913V57.7397H50.9131V48.9913H42.1375ZM54.4234 48.9913V57.7397H63.1991V48.9913H54.4234ZM17.5656 61.239V69.9874H26.3412V61.239H17.5656ZM29.8515 61.239V69.9874H38.6272V61.239H29.8515ZM42.1375 61.239V69.9874H50.9131V61.239H42.1375ZM54.4234 61.239V69.9874H63.1991V61.239H54.4234Z" fill="#03426B"/>
</svg>
