<svg width="29" height="36" viewBox="0 0 29 36" fill="none" xmlns="http://www.w3.org/2000/svg">
<path d="M14.5 0C12.9993 0 11.7812 1.2096 11.7812 2.7V3.95156C7.09265 5.15177 3.625 9.36864 3.625 14.4V25.2L0 28.8V30.6H11.3635C11.0444 31.147 10.8759 31.7678 10.875 32.4C10.875 33.3548 11.2569 34.2705 11.9367 34.9456C12.6166 35.6207 13.5386 36 14.5 36C15.4614 36 16.3834 35.6207 17.0633 34.9456C17.7431 34.2705 18.125 33.3548 18.125 32.4C18.1231 31.7675 17.9533 31.1467 17.6329 30.6H29V28.8L25.375 25.2V14.4C25.375 9.36864 21.9074 5.15177 17.2188 3.95156V2.7C17.2188 1.2096 16.0007 0 14.5 0ZM14.5 7.2C18.4984 7.2 21.75 10.4292 21.75 14.4V25.2V26.6906L22.0615 27H6.93848L7.25 26.6906V25.2V14.4C7.25 10.4292 10.5016 7.2 14.5 7.2Z" fill="#03426B"/>
</svg>
