<?xml version="1.0" encoding="UTF-8"?><svg id="Layer_1" xmlns="http://www.w3.org/2000/svg" viewBox="0 0 291.12 239.43"><defs><style>.cls-1{fill:#03426b;}</style></defs><path d="M198.06,61.49c7.32-2.42,15.42-.09,21.49,4.32,13.15,9.82,18.59,29.25,11.37,44.18-2.87,5.61-7.91,10.34-14.13,11.84-8.65,2.35-18.06-1.11-24.25-7.31-8.87-8.91-13.31-22.45-10.37-34.79,1.7-8.23,7.58-15.96,15.89-18.24Z"/><path d="M258.11,77.5c5.26-.87,10.85.35,15.06,3.69,12.48,9.58,14.48,29.76,4.52,41.82-4.09,4.97-10.79,7.76-17.2,6.76-6.33-1.1-11.98-5.24-15.17-10.78-6.04-9.93-6.24-23.51.41-33.21,3-4.06,7.29-7.44,12.38-8.28Z"/><path d="M143.09,90.47c8.48-2.76,17.9-.25,24.97,4.85,11.82,8.3,18.9,24.28,14.41,38.43-2.72,8.91-11.58,15.15-20.84,15.11-18.85-.34-34.54-18.64-33.51-37.16.01-9.24,5.99-18.43,14.97-21.23Z"/><path d="M208.14,132.6c6.77-1.44,13.89-.78,20.33,1.72,6.26,1.93,12.06,6.61,18.95,5.56,6.71-1,13.73-1.17,20.27.93,9.82,2.87,18,10.67,21.43,20.31,5.3,14.2-.18,31.81-13.09,39.95-5.89,3.8-12.59,6.31-19.46,7.64-8.82,1.55-16.93,5.79-24.3,10.73-6.36,4.87-11.53,11.31-18.79,14.98-7.39,4.72-16.53,5.93-25.06,4.35-10.71-2.29-20.31-9.92-24.31-20.21-5.07-12.38-1.65-27.28,7.33-36.98,2.89-3.08,5.44-6.68,6.22-10.92,1.31-7.1,2.38-14.48,6.03-20.84,5.2-8.92,14.59-14.76,24.45-17.22Z"/><path d="M123.15,148.53c15.76-5.1,33.51,7.27,36.29,23.15,1.36,6.48-.69,13.77-5.75,18.17-3.21,3.18-7.75,4.43-12.12,4.92-16.05.78-31.9-13.68-30.75-30.09.22-7.27,5.43-13.94,12.33-16.15Z"/><path class="cls-1" d="M23.97,19.05C37.3,6.19,56.14-.63,74.59.06c22.22-.02,43.35,10.12,59.96,24.4C151.85,8.86,175.08-1.09,198.61.09c7.92-.02,15.67,1.97,23.15,4.41,14.84,5.82,27.74,16.57,35.61,30.49,6.14,10.5,9.74,22.45,10.77,34.56-8.47-1.71-17.26.47-24,5.83-1.57,1.49-2.96,3.13-4.31,4.79-3.35-7.63-7.75-15.13-14.6-20.13-6.11-4.85-13.79-7.84-21.63-7.8-8.53.41-16.89,4.44-22.31,11.08-5.9,6.97-8.28,16.33-8.29,25.32-8.33-5.42-18.46-9.01-28.46-6.96-10.17,1.93-18.98,9.5-22.55,19.18-4.74,12.75-1.23,27.34,6.56,38.12-6.54.9-13.13,3.1-17.89,7.86-6.3,6.04-9.34,15.33-7.73,23.91,2.67,20.12,24.28,35.97,44.27,31.34,2.32-.6,4.57-1.47,6.86-2.22-.12,1.61-.34,3.21-.65,4.8-.04,3.12.46,6.2.75,9.31-5.09,3.42-10.27,6.68-15.39,10.04-2.75,2.03-6.74,1.68-9.41-.31-15.05-9.66-29.73-19.9-43.95-30.74-20.42-15.71-40.07-32.62-56.94-52.14-10.6-12.58-20.36-26.37-25.45-42.17-3.89-11.23-3.5-23.43-1.72-35.02C3.87,46.89,11.47,30.66,23.97,19.05Z"/></svg>