<svg width="29" height="29" viewBox="0 0 29 29" fill="none" xmlns="http://www.w3.org/2000/svg">
<path d="M12.3071 0.427426C15.5957 -0.871806 19.6244 1.15222 20.6114 4.5256C21.7448 7.77561 19.7093 11.627 16.4245 12.587C13.1476 13.7243 9.2807 11.6425 8.34772 8.32691C7.30293 5.181 9.18817 1.49534 12.3071 0.427426ZM13.1129 3.56178C10.9616 4.46777 10.6609 7.75248 12.5847 9.05556C14.4429 10.5437 17.5503 9.1905 17.6814 6.80022C18.0515 4.40609 15.2487 2.43989 13.1129 3.56178Z" fill="#03426B"/>
<path d="M7.95458 18.7016C13.4715 17.0014 19.5513 17.6414 24.7521 20.0586C26.4561 20.9183 28.2835 22.1135 28.831 24.0566C29.0854 25.6796 28.9004 27.3335 28.9466 28.9682C19.3123 28.972 9.67404 28.9682 0.0396664 28.9682C0.178457 27.0675 -0.345863 25.0204 0.471459 23.2315C2.04827 20.5945 5.17491 19.5497 7.95458 18.7016ZM10.2562 21.4388C7.97771 21.9863 5.59899 22.6532 3.76002 24.1722C3.23185 24.5269 3.30124 25.2016 3.18173 25.7529C10.7265 25.7606 18.2675 25.7606 25.8084 25.7529C25.9125 24.1568 24.3049 23.4474 23.1059 22.8537C19.1079 21.0918 14.5433 20.421 10.2562 21.4427V21.4388Z" fill="#03426B"/>
</svg>
