<svg width="31" height="30" viewBox="0 0 31 30" fill="none" xmlns="http://www.w3.org/2000/svg">
<path d="M10.85 0C4.87607 0 0 4.71878 0 10.5C0 16.2812 4.87607 21 10.85 21C13.5594 21 16.0348 20.022 17.94 18.4219L18.6 19.0605V21L27.9 30L31 27L21.7 18H19.6959L19.0359 17.3613C20.6894 15.5175 21.7 13.122 21.7 10.5C21.7 4.71878 16.8239 0 10.85 0ZM10.85 3C15.1486 3 18.6 6.3401 18.6 10.5C18.6 14.6599 15.1486 18 10.85 18C6.55143 18 3.1 14.6599 3.1 10.5C3.1 6.3401 6.55143 3 10.85 3Z" fill="#03426B"/>
</svg>
