<svg width="31" height="30" viewBox="0 0 31 30" fill="none" xmlns="http://www.w3.org/2000/svg">
<path d="M10.85 0C4.87607 0 0 4.68001 0 10.4137C0 16.1475 4.87607 20.8275 10.85 20.8275C13.5594 20.8275 16.0348 19.8575 17.94 18.2705L18.6 18.9039V20.8275L27.9 29.7535L31 26.7782L21.7 17.8521H19.6959L19.0359 17.2187C20.6894 15.39 21.7 13.0142 21.7 10.4137C21.7 4.68001 16.8239 0 10.85 0ZM10.85 2.97535C15.1486 2.97535 18.6 6.28801 18.6 10.4137C18.6 14.5395 15.1486 17.8521 10.85 17.8521C6.55143 17.8521 3.1 14.5395 3.1 10.4137C3.1 6.28801 6.55143 2.97535 10.85 2.97535Z" fill="white"/>
</svg>
