<?xml version="1.0" encoding="UTF-8"?><svg id="Layer_1" xmlns="http://www.w3.org/2000/svg" viewBox="0 0 29 36"><defs><style>.cls-1{fill:#fff;}</style></defs><path class="cls-1" d="M14.5,0c-1.5,0-2.72,1.21-2.72,2.7v1.25C7.09,5.15,3.62,9.37,3.62,14.4v10.8l-3.62,3.6v1.8h11.36c-.32.55-.49,1.17-.49,1.8,0,.95.38,1.87,1.06,2.55.68.68,1.6,1.05,2.56,1.05s1.88-.38,2.56-1.05c.68-.68,1.06-1.59,1.06-2.55,0-.63-.17-1.25-.49-1.8h11.37v-1.8l-3.62-3.6v-10.8c0-5.03-3.47-9.25-8.16-10.45v-1.25c0-1.49-1.22-2.7-2.72-2.7ZM14.5,7.2c4,0,7.25,3.23,7.25,7.2v12.29l.31.31H6.94l.31-.31v-12.29c0-3.97,3.25-7.2,7.25-7.2Z"/></svg>