<?xml version="1.0" encoding="UTF-8"?><svg id="Layer_1" xmlns="http://www.w3.org/2000/svg" viewBox="0 0 28.97 28.94"><defs><style>.cls-1{fill:#fff;}</style></defs><path class="cls-1" d="M12.31.4c3.29-1.3,7.32.72,8.3,4.1,1.13,3.25-.9,7.1-4.19,8.06-3.28,1.14-7.14-.94-8.08-4.26-1.04-3.15.84-6.83,3.96-7.9ZM13.11,3.53c-2.15.91-2.45,4.19-.53,5.49,1.86,1.49,4.97.13,5.1-2.26.37-2.39-2.43-4.36-4.57-3.24Z"/><path class="cls-1" d="M7.95,18.67c5.52-1.7,11.6-1.06,16.8,1.36,1.7.86,3.53,2.05,4.08,4,.25,1.62.07,3.28.12,4.91-9.63,0-19.27,0-28.91,0,.14-1.9-.39-3.95.43-5.74,1.58-2.64,4.7-3.68,7.48-4.53ZM10.26,21.41c-2.28.55-4.66,1.21-6.5,2.73-.53.35-.46,1.03-.58,1.58,7.54,0,15.09,0,22.63,0,.1-1.6-1.5-2.31-2.7-2.9-4-1.76-8.56-2.43-12.85-1.41h0Z"/></svg>