<svg width="40" height="40" viewBox="0 0 40 40" fill="none" xmlns="http://www.w3.org/2000/svg">
<path d="M2.55775 0.437129C3.50111 -0.0426468 4.58838 0.0319851 5.6117 0C15.5677 0.0426468 25.5183 -0.0106617 35.4743 0.0213234C37.8887 -0.101286 40.0686 2.08436 39.978 4.4939C40.0099 14.8091 40.0046 25.1243 39.978 35.4341C40.0792 37.865 37.91 40.024 35.4956 39.9707C25.1719 40.008 14.8482 40.0133 4.52443 39.9654C2.11005 40.0347 -0.0751546 37.8757 0.0367703 35.4395C-0.00586778 25.3215 0.0367703 15.1929 0.0154512 5.07497C-0.133782 3.19318 0.804255 1.23676 2.55775 0.437129ZM4.4658 4.4246C4.46047 14.7984 4.46047 25.1723 4.4658 35.5461C14.8268 35.5514 25.1879 35.5514 35.5489 35.5461C35.5543 31.4147 35.5596 27.2779 35.5489 23.1412C33.1026 25.5667 30.6829 28.0083 28.2418 30.4338C27.1972 29.3943 26.1526 28.3441 25.1079 27.2993C26.8028 25.6147 28.4923 23.9302 30.1659 22.2243C24.559 22.219 18.9521 22.2296 13.3452 22.2243C13.3452 20.7317 13.3398 19.239 13.3452 17.7464C18.9521 17.7411 24.559 17.7517 30.1659 17.7464C28.4977 16.0405 26.8028 14.356 25.1079 12.6714C26.1526 11.6266 27.1972 10.5764 28.2418 9.53688C30.6829 11.9624 33.1026 14.4039 35.5489 16.8295C35.5596 12.6927 35.5543 8.55601 35.5489 4.4246C25.1879 4.41927 14.8268 4.41927 4.4658 4.4246Z" fill="white"/>
</svg>
